%TF.GenerationSoftware,KiCad,Pcbnew,8.0.4*%
%TF.CreationDate,2024-08-28T09:53:51+01:00*%
%TF.ProjectId,qmmister-snac-restore,716d6d69-7374-4657-922d-736e61632d72,rev?*%
%TF.SameCoordinates,Original*%
%TF.FileFunction,Soldermask,Bot*%
%TF.FilePolarity,Negative*%
%FSLAX46Y46*%
G04 Gerber Fmt 4.6, Leading zero omitted, Abs format (unit mm)*
G04 Created by KiCad (PCBNEW 8.0.4) date 2024-08-28 09:53:51*
%MOMM*%
%LPD*%
G01*
G04 APERTURE LIST*
%ADD10C,0.865000*%
%ADD11C,0.000000*%
G04 APERTURE END LIST*
D10*
X145258500Y-96984000D02*
G75*
G02*
X144393500Y-96984000I-432500J0D01*
G01*
X144393500Y-96984000D02*
G75*
G02*
X145258500Y-96984000I432500J0D01*
G01*
X124938500Y-99524000D02*
G75*
G02*
X124073500Y-99524000I-432500J0D01*
G01*
X124073500Y-99524000D02*
G75*
G02*
X124938500Y-99524000I432500J0D01*
G01*
X106778500Y-105624000D02*
G75*
G02*
X105913500Y-105624000I-432500J0D01*
G01*
X105913500Y-105624000D02*
G75*
G02*
X106778500Y-105624000I432500J0D01*
G01*
X133698500Y-105624000D02*
G75*
G02*
X132833500Y-105624000I-432500J0D01*
G01*
X132833500Y-105624000D02*
G75*
G02*
X133698500Y-105624000I432500J0D01*
G01*
X119858500Y-96984000D02*
G75*
G02*
X118993500Y-96984000I-432500J0D01*
G01*
X118993500Y-96984000D02*
G75*
G02*
X119858500Y-96984000I432500J0D01*
G01*
X104618500Y-96984000D02*
G75*
G02*
X103753500Y-96984000I-432500J0D01*
G01*
X103753500Y-96984000D02*
G75*
G02*
X104618500Y-96984000I432500J0D01*
G01*
D11*
G36*
X144291000Y-106489000D02*
G01*
X142561000Y-106489000D01*
X142561000Y-104759000D01*
X144291000Y-104759000D01*
X144291000Y-106489000D01*
G37*
D10*
X117318500Y-96984000D02*
G75*
G02*
X116453500Y-96984000I-432500J0D01*
G01*
X116453500Y-96984000D02*
G75*
G02*
X117318500Y-96984000I432500J0D01*
G01*
X137638500Y-96984000D02*
G75*
G02*
X136773500Y-96984000I-432500J0D01*
G01*
X136773500Y-96984000D02*
G75*
G02*
X137638500Y-96984000I432500J0D01*
G01*
X96998500Y-96984000D02*
G75*
G02*
X96133500Y-96984000I-432500J0D01*
G01*
X96133500Y-96984000D02*
G75*
G02*
X96998500Y-96984000I432500J0D01*
G01*
X112238500Y-96984000D02*
G75*
G02*
X111373500Y-96984000I-432500J0D01*
G01*
X111373500Y-96984000D02*
G75*
G02*
X112238500Y-96984000I432500J0D01*
G01*
X135098500Y-99524000D02*
G75*
G02*
X134233500Y-99524000I-432500J0D01*
G01*
X134233500Y-99524000D02*
G75*
G02*
X135098500Y-99524000I432500J0D01*
G01*
X102078500Y-96984000D02*
G75*
G02*
X101213500Y-96984000I-432500J0D01*
G01*
X101213500Y-96984000D02*
G75*
G02*
X102078500Y-96984000I432500J0D01*
G01*
X122398500Y-96984000D02*
G75*
G02*
X121533500Y-96984000I-432500J0D01*
G01*
X121533500Y-96984000D02*
G75*
G02*
X122398500Y-96984000I432500J0D01*
G01*
X109698500Y-96984000D02*
G75*
G02*
X108833500Y-96984000I-432500J0D01*
G01*
X108833500Y-96984000D02*
G75*
G02*
X109698500Y-96984000I432500J0D01*
G01*
X109318500Y-105624000D02*
G75*
G02*
X108453500Y-105624000I-432500J0D01*
G01*
X108453500Y-105624000D02*
G75*
G02*
X109318500Y-105624000I432500J0D01*
G01*
X128618500Y-105624000D02*
G75*
G02*
X127753500Y-105624000I-432500J0D01*
G01*
X127753500Y-105624000D02*
G75*
G02*
X128618500Y-105624000I432500J0D01*
G01*
X142718500Y-96984000D02*
G75*
G02*
X141853500Y-96984000I-432500J0D01*
G01*
X141853500Y-96984000D02*
G75*
G02*
X142718500Y-96984000I432500J0D01*
G01*
X114778500Y-99524000D02*
G75*
G02*
X113913500Y-99524000I-432500J0D01*
G01*
X113913500Y-99524000D02*
G75*
G02*
X114778500Y-99524000I432500J0D01*
G01*
X99158500Y-105624000D02*
G75*
G02*
X98293500Y-105624000I-432500J0D01*
G01*
X98293500Y-105624000D02*
G75*
G02*
X99158500Y-105624000I432500J0D01*
G01*
X96998500Y-99524000D02*
G75*
G02*
X96133500Y-99524000I-432500J0D01*
G01*
X96133500Y-99524000D02*
G75*
G02*
X96998500Y-99524000I432500J0D01*
G01*
X114398500Y-105624000D02*
G75*
G02*
X113533500Y-105624000I-432500J0D01*
G01*
X113533500Y-105624000D02*
G75*
G02*
X114398500Y-105624000I432500J0D01*
G01*
X107158500Y-99524000D02*
G75*
G02*
X106293500Y-99524000I-432500J0D01*
G01*
X106293500Y-99524000D02*
G75*
G02*
X107158500Y-99524000I432500J0D01*
G01*
X111858500Y-105624000D02*
G75*
G02*
X110993500Y-105624000I-432500J0D01*
G01*
X110993500Y-105624000D02*
G75*
G02*
X111858500Y-105624000I432500J0D01*
G01*
X104238500Y-105624000D02*
G75*
G02*
X103373500Y-105624000I-432500J0D01*
G01*
X103373500Y-105624000D02*
G75*
G02*
X104238500Y-105624000I432500J0D01*
G01*
X101698500Y-105624000D02*
G75*
G02*
X100833500Y-105624000I-432500J0D01*
G01*
X100833500Y-105624000D02*
G75*
G02*
X101698500Y-105624000I432500J0D01*
G01*
X130018500Y-99524000D02*
G75*
G02*
X129153500Y-99524000I-432500J0D01*
G01*
X129153500Y-99524000D02*
G75*
G02*
X130018500Y-99524000I432500J0D01*
G01*
X136238500Y-105624000D02*
G75*
G02*
X135373500Y-105624000I-432500J0D01*
G01*
X135373500Y-105624000D02*
G75*
G02*
X136238500Y-105624000I432500J0D01*
G01*
D11*
G36*
X145691000Y-100389000D02*
G01*
X143961000Y-100389000D01*
X143961000Y-98659000D01*
X145691000Y-98659000D01*
X145691000Y-100389000D01*
G37*
D10*
X138778500Y-105624000D02*
G75*
G02*
X137913500Y-105624000I-432500J0D01*
G01*
X137913500Y-105624000D02*
G75*
G02*
X138778500Y-105624000I432500J0D01*
G01*
X135098500Y-96984000D02*
G75*
G02*
X134233500Y-96984000I-432500J0D01*
G01*
X134233500Y-96984000D02*
G75*
G02*
X135098500Y-96984000I432500J0D01*
G01*
X126078500Y-105624000D02*
G75*
G02*
X125213500Y-105624000I-432500J0D01*
G01*
X125213500Y-105624000D02*
G75*
G02*
X126078500Y-105624000I432500J0D01*
G01*
X123538500Y-105624000D02*
G75*
G02*
X122673500Y-105624000I-432500J0D01*
G01*
X122673500Y-105624000D02*
G75*
G02*
X123538500Y-105624000I432500J0D01*
G01*
X99538500Y-96984000D02*
G75*
G02*
X98673500Y-96984000I-432500J0D01*
G01*
X98673500Y-96984000D02*
G75*
G02*
X99538500Y-96984000I432500J0D01*
G01*
X130018500Y-96984000D02*
G75*
G02*
X129153500Y-96984000I-432500J0D01*
G01*
X129153500Y-96984000D02*
G75*
G02*
X130018500Y-96984000I432500J0D01*
G01*
X131158500Y-105624000D02*
G75*
G02*
X130293500Y-105624000I-432500J0D01*
G01*
X130293500Y-105624000D02*
G75*
G02*
X131158500Y-105624000I432500J0D01*
G01*
X137638500Y-99524000D02*
G75*
G02*
X136773500Y-99524000I-432500J0D01*
G01*
X136773500Y-99524000D02*
G75*
G02*
X137638500Y-99524000I432500J0D01*
G01*
D11*
G36*
X117371000Y-106489000D02*
G01*
X115641000Y-106489000D01*
X115641000Y-104759000D01*
X117371000Y-104759000D01*
X117371000Y-106489000D01*
G37*
D10*
X102078500Y-99524000D02*
G75*
G02*
X101213500Y-99524000I-432500J0D01*
G01*
X101213500Y-99524000D02*
G75*
G02*
X102078500Y-99524000I432500J0D01*
G01*
X107158500Y-96984000D02*
G75*
G02*
X106293500Y-96984000I-432500J0D01*
G01*
X106293500Y-96984000D02*
G75*
G02*
X107158500Y-96984000I432500J0D01*
G01*
X127478500Y-99524000D02*
G75*
G02*
X126613500Y-99524000I-432500J0D01*
G01*
X126613500Y-99524000D02*
G75*
G02*
X127478500Y-99524000I432500J0D01*
G01*
X142718500Y-99524000D02*
G75*
G02*
X141853500Y-99524000I-432500J0D01*
G01*
X141853500Y-99524000D02*
G75*
G02*
X142718500Y-99524000I432500J0D01*
G01*
X140178500Y-96984000D02*
G75*
G02*
X139313500Y-96984000I-432500J0D01*
G01*
X139313500Y-96984000D02*
G75*
G02*
X140178500Y-96984000I432500J0D01*
G01*
X120998500Y-105624000D02*
G75*
G02*
X120133500Y-105624000I-432500J0D01*
G01*
X120133500Y-105624000D02*
G75*
G02*
X120998500Y-105624000I432500J0D01*
G01*
X127478500Y-96984000D02*
G75*
G02*
X126613500Y-96984000I-432500J0D01*
G01*
X126613500Y-96984000D02*
G75*
G02*
X127478500Y-96984000I432500J0D01*
G01*
X119858500Y-99524000D02*
G75*
G02*
X118993500Y-99524000I-432500J0D01*
G01*
X118993500Y-99524000D02*
G75*
G02*
X119858500Y-99524000I432500J0D01*
G01*
X122398500Y-99524000D02*
G75*
G02*
X121533500Y-99524000I-432500J0D01*
G01*
X121533500Y-99524000D02*
G75*
G02*
X122398500Y-99524000I432500J0D01*
G01*
X132558500Y-96984000D02*
G75*
G02*
X131693500Y-96984000I-432500J0D01*
G01*
X131693500Y-96984000D02*
G75*
G02*
X132558500Y-96984000I432500J0D01*
G01*
X104618500Y-99524000D02*
G75*
G02*
X103753500Y-99524000I-432500J0D01*
G01*
X103753500Y-99524000D02*
G75*
G02*
X104618500Y-99524000I432500J0D01*
G01*
X112238500Y-99524000D02*
G75*
G02*
X111373500Y-99524000I-432500J0D01*
G01*
X111373500Y-99524000D02*
G75*
G02*
X112238500Y-99524000I432500J0D01*
G01*
X132558500Y-99524000D02*
G75*
G02*
X131693500Y-99524000I-432500J0D01*
G01*
X131693500Y-99524000D02*
G75*
G02*
X132558500Y-99524000I432500J0D01*
G01*
X114778500Y-96984000D02*
G75*
G02*
X113913500Y-96984000I-432500J0D01*
G01*
X113913500Y-96984000D02*
G75*
G02*
X114778500Y-96984000I432500J0D01*
G01*
X117318500Y-99524000D02*
G75*
G02*
X116453500Y-99524000I-432500J0D01*
G01*
X116453500Y-99524000D02*
G75*
G02*
X117318500Y-99524000I432500J0D01*
G01*
X141318500Y-105624000D02*
G75*
G02*
X140453500Y-105624000I-432500J0D01*
G01*
X140453500Y-105624000D02*
G75*
G02*
X141318500Y-105624000I432500J0D01*
G01*
X99538500Y-99524000D02*
G75*
G02*
X98673500Y-99524000I-432500J0D01*
G01*
X98673500Y-99524000D02*
G75*
G02*
X99538500Y-99524000I432500J0D01*
G01*
X124938500Y-96984000D02*
G75*
G02*
X124073500Y-96984000I-432500J0D01*
G01*
X124073500Y-96984000D02*
G75*
G02*
X124938500Y-96984000I432500J0D01*
G01*
X109698500Y-99524000D02*
G75*
G02*
X108833500Y-99524000I-432500J0D01*
G01*
X108833500Y-99524000D02*
G75*
G02*
X109698500Y-99524000I432500J0D01*
G01*
X140178500Y-99524000D02*
G75*
G02*
X139313500Y-99524000I-432500J0D01*
G01*
X139313500Y-99524000D02*
G75*
G02*
X140178500Y-99524000I432500J0D01*
G01*
M02*
