%TF.GenerationSoftware,KiCad,Pcbnew,8.0.4*%
%TF.CreationDate,2024-08-28T09:53:51+01:00*%
%TF.ProjectId,qmmister-snac-restore,716d6d69-7374-4657-922d-736e61632d72,rev?*%
%TF.SameCoordinates,Original*%
%TF.FileFunction,Copper,L2,Bot*%
%TF.FilePolarity,Positive*%
%FSLAX46Y46*%
G04 Gerber Fmt 4.6, Leading zero omitted, Abs format (unit mm)*
G04 Created by KiCad (PCBNEW 8.0.4) date 2024-08-28 09:53:51*
%MOMM*%
%LPD*%
G01*
G04 APERTURE LIST*
%TA.AperFunction,NonConductor*%
%ADD10C,0.000000*%
%TD*%
%TA.AperFunction,ViaPad*%
%ADD11C,1.600000*%
%TD*%
%TA.AperFunction,ViaPad*%
%ADD12C,0.600000*%
%TD*%
%TA.AperFunction,ViaPad*%
%ADD13C,1.000010*%
%TD*%
%TA.AperFunction,Conductor*%
%ADD14C,0.200000*%
%TD*%
G04 APERTURE END LIST*
D10*
%TA.AperFunction,NonConductor*%
G36*
X145626000Y-100324000D02*
G01*
X144026000Y-100324000D01*
X144026000Y-98724000D01*
X145626000Y-98724000D01*
X145626000Y-100324000D01*
G37*
%TD.AperFunction*%
%TA.AperFunction,NonConductor*%
G36*
X117306000Y-106424000D02*
G01*
X115706000Y-106424000D01*
X115706000Y-104824000D01*
X117306000Y-104824000D01*
X117306000Y-106424000D01*
G37*
%TD.AperFunction*%
%TA.AperFunction,NonConductor*%
G36*
X144226000Y-106424000D02*
G01*
X142626000Y-106424000D01*
X142626000Y-104824000D01*
X144226000Y-104824000D01*
X144226000Y-106424000D01*
G37*
%TD.AperFunction*%
D11*
%TO.N,*%
X108886000Y-105624000D03*
X142286000Y-99524000D03*
X124506000Y-99524000D03*
X130726000Y-105624000D03*
X139746000Y-99524000D03*
D12*
X128250000Y-100500000D03*
X122750000Y-103500000D03*
D11*
X127046000Y-96984000D03*
X135806000Y-105624000D03*
X109266000Y-99524000D03*
X127046000Y-99524000D03*
D12*
X129000000Y-102750000D03*
D11*
X121966000Y-96984000D03*
X129586000Y-96984000D03*
D13*
X144826000Y-99524000D03*
D11*
X116886000Y-96984000D03*
X101646000Y-99524000D03*
X98726000Y-105624000D03*
X99106000Y-96984000D03*
D12*
X119250000Y-102750000D03*
D11*
X104186000Y-99524000D03*
X103806000Y-105624000D03*
D12*
X125650741Y-102956869D03*
D11*
X140886000Y-105624000D03*
X106346000Y-105624000D03*
X137206000Y-96984000D03*
X101266000Y-105624000D03*
X106726000Y-99524000D03*
X119426000Y-99524000D03*
D12*
X115750000Y-100750000D03*
D11*
X138346000Y-105624000D03*
X111806000Y-99524000D03*
X116886000Y-99524000D03*
X123106000Y-105624000D03*
X132126000Y-99524000D03*
X134666000Y-96984000D03*
X124506000Y-96984000D03*
X139746000Y-96984000D03*
X120566000Y-105624000D03*
D12*
X117000000Y-103250000D03*
D11*
X125646000Y-105624000D03*
X137206000Y-99524000D03*
X132126000Y-96984000D03*
X133266000Y-105624000D03*
X121966000Y-99524000D03*
X111806000Y-96984000D03*
X144826000Y-96984000D03*
D13*
X116506000Y-105624000D03*
D11*
X114346000Y-96984000D03*
X106726000Y-96984000D03*
X96566000Y-96984000D03*
X119426000Y-96984000D03*
X109266000Y-96984000D03*
X128186000Y-105624000D03*
X101646000Y-96984000D03*
X114346000Y-99524000D03*
X99106000Y-99524000D03*
X134666000Y-99524000D03*
X104186000Y-96984000D03*
D12*
X124250000Y-101000000D03*
D13*
X143426000Y-105624000D03*
D11*
X111426000Y-105624000D03*
X142286000Y-96984000D03*
X129586000Y-99524000D03*
X96566000Y-99524000D03*
X113966000Y-105624000D03*
%TD*%
D14*
%TO.N,*%
X116376000Y-105754000D02*
X116506000Y-105624000D01*
X111426000Y-105074000D02*
X111426000Y-105624000D01*
X125750000Y-100750000D02*
X125750000Y-99000000D01*
X106346000Y-105624000D02*
X106361000Y-105639000D01*
X101266000Y-105624000D02*
X101321000Y-105679000D01*
X98726000Y-105624000D02*
X98801000Y-105699000D01*
X113145720Y-96104280D02*
X114000000Y-95250000D01*
X128186000Y-103186000D02*
X125750000Y-100750000D01*
X124506000Y-99524000D02*
X123280000Y-100750000D01*
X140886000Y-100924000D02*
X140886000Y-105624000D01*
X144888317Y-102611683D02*
X144888317Y-106718330D01*
X112000000Y-104500000D02*
X111426000Y-105074000D01*
X146165817Y-98323817D02*
X146165817Y-101364999D01*
X125650741Y-102400741D02*
X125650741Y-102956869D01*
X123250000Y-100750000D02*
X119500000Y-104500000D01*
X106346000Y-105624000D02*
X106376000Y-105624000D01*
X110250000Y-104000000D02*
X108886000Y-105364000D01*
X130726000Y-106649060D02*
X130726000Y-105624000D01*
X132500000Y-107000000D02*
X142050000Y-107000000D01*
X114000000Y-95250000D02*
X132932000Y-95250000D01*
X146135001Y-101364999D02*
X144888317Y-102611683D01*
X121966000Y-101284000D02*
X119250000Y-104000000D01*
X119250000Y-104000000D02*
X110250000Y-104000000D01*
X118250000Y-102250000D02*
X118750000Y-102750000D01*
X128186000Y-105624000D02*
X128186000Y-103186000D01*
X103806000Y-105624000D02*
X103841000Y-105659000D01*
X144826000Y-96984000D02*
X146165817Y-98323817D01*
X109500000Y-102500000D02*
X112000000Y-102500000D01*
X111401000Y-105649000D02*
X111426000Y-105624000D01*
X144138040Y-107468607D02*
X131545547Y-107468607D01*
X115750000Y-102000000D02*
X115750000Y-100750000D01*
X122750000Y-103500000D02*
X123106000Y-103856000D01*
X113921000Y-105669000D02*
X113966000Y-105624000D01*
X108886000Y-105364000D02*
X108886000Y-105624000D01*
X117000000Y-103250000D02*
X115750000Y-102000000D01*
X131545547Y-107468607D02*
X130726000Y-106649060D01*
X132000000Y-106500000D02*
X132500000Y-107000000D01*
X132000000Y-101938000D02*
X132000000Y-106500000D01*
X129586000Y-99524000D02*
X132000000Y-101938000D01*
X108881000Y-105629000D02*
X108886000Y-105624000D01*
X146165817Y-101364999D02*
X146135001Y-101364999D01*
X120700000Y-98250000D02*
X119426000Y-99524000D01*
X112000000Y-102500000D02*
X113145720Y-101354280D01*
X119500000Y-104500000D02*
X112000000Y-104500000D01*
X142286000Y-99524000D02*
X140886000Y-100924000D01*
X124250000Y-101000000D02*
X125650741Y-102400741D01*
X121966000Y-99524000D02*
X121966000Y-101284000D01*
X119426000Y-96984000D02*
X118250000Y-98160000D01*
X132932000Y-95250000D02*
X134666000Y-96984000D01*
X118750000Y-102750000D02*
X119250000Y-102750000D01*
X123280000Y-100750000D02*
X123250000Y-100750000D01*
X128250000Y-102000000D02*
X129000000Y-102750000D01*
X118250000Y-98160000D02*
X118250000Y-102250000D01*
X106376000Y-105624000D02*
X109500000Y-102500000D01*
X142050000Y-107000000D02*
X143426000Y-105624000D01*
X125000000Y-98250000D02*
X120700000Y-98250000D01*
X128250000Y-100500000D02*
X128250000Y-102000000D01*
X113145720Y-101354280D02*
X113145720Y-96104280D01*
X144888317Y-106718330D02*
X144138040Y-107468607D01*
X123106000Y-103856000D02*
X123106000Y-105624000D01*
X125750000Y-99000000D02*
X125000000Y-98250000D01*
%TD*%
M02*
