M48
; DRILL file {KiCad 8.0.4} date 2024-08-28T09:53:53+0100
; FORMAT={-:-/ absolute / inch / decimal}
; #@! TF.CreationDate,2024-08-28T09:53:53+01:00
; #@! TF.GenerationSoftware,Kicad,Pcbnew,8.0.4
; #@! TF.FileFunction,Plated,1,2,PTH
FMAT,2
INCH
; #@! TA.AperFunction,Plated,PTH,ViaDrill
T1C0.0118
; #@! TA.AperFunction,Plated,PTH,ViaDrill
T2C0.0394
%
G90
G05
T1
X4.5571Y-3.9665
X4.6063Y-4.065
X4.6949Y-4.0453
X4.8327Y-4.0748
X4.8917Y-3.9764
X4.9469Y-4.0534
X5.0492Y-3.9567
X5.0787Y-4.0453
T2
X3.8018Y-3.8183
X3.8018Y-3.9183
X3.8869Y-4.1584
X3.9018Y-3.8183
X3.9018Y-3.9183
X3.9869Y-4.1584
X4.0018Y-3.8183
X4.0018Y-3.9183
X4.0869Y-4.1584
X4.1018Y-3.8183
X4.1018Y-3.9183
X4.1869Y-4.1584
X4.2018Y-3.8183
X4.2018Y-3.9183
X4.2869Y-4.1584
X4.3018Y-3.8183
X4.3018Y-3.9183
X4.3869Y-4.1584
X4.4018Y-3.8183
X4.4018Y-3.9183
X4.4869Y-4.1584
X4.5018Y-3.8183
X4.5018Y-3.9183
X4.5869Y-4.1584
X4.6018Y-3.8183
X4.6018Y-3.9183
X4.7018Y-3.8183
X4.7018Y-3.9183
X4.7467Y-4.1584
X4.8018Y-3.8183
X4.8018Y-3.9183
X4.8467Y-4.1584
X4.9018Y-3.8183
X4.9018Y-3.9183
X4.9467Y-4.1584
X5.0018Y-3.8183
X5.0018Y-3.9183
X5.0467Y-4.1584
X5.1018Y-3.8183
X5.1018Y-3.9183
X5.1467Y-4.1584
X5.2018Y-3.8183
X5.2018Y-3.9183
X5.2467Y-4.1584
X5.3018Y-3.8183
X5.3018Y-3.9183
X5.3467Y-4.1584
X5.4018Y-3.8183
X5.4018Y-3.9183
X5.4467Y-4.1584
X5.5018Y-3.8183
X5.5018Y-3.9183
X5.5467Y-4.1584
X5.6018Y-3.8183
X5.6018Y-3.9183
X5.6467Y-4.1584
X5.7018Y-3.8183
X5.7018Y-3.9183
M30
